<?xml version="1.0" standalone="no"?>
<!DOCTYPE svg PUBLIC "-//W3C//DTD SVG 20010904//EN"
 "http://www.w3.org/TR/2001/REC-SVG-20010904/DTD/svg10.dtd">
<svg version="1.0" xmlns="http://www.w3.org/2000/svg"
 width="700.000000pt" height="700.000000pt" viewBox="0 0 700.000000 700.000000"
 preserveAspectRatio="xMidYMid meet">
<metadata>
Created by potrace 1.14, written by Peter Selinger 2001-2017
</metadata>
<g transform="translate(0.000000,700.000000) scale(0.100000,-0.100000)"
fill="#000000" stroke="none">
<path d="M747 4563 c-4 -3 -7 -15 -7 -25 0 -13 32 -34 120 -78 l120 -60 0
-813 0 -813 -120 -59 c-101 -50 -120 -63 -120 -82 l0 -23 463 0 c491 0 587 6
725 46 266 77 439 244 474 459 41 249 -133 454 -456 535 -61 16 -102 29 -92
29 11 1 58 20 105 42 193 94 300 281 270 471 -33 205 -235 336 -568 368 -117
11 -904 14 -914 3z m899 -183 c121 -31 186 -82 233 -180 22 -47 26 -69 26
-150 0 -84 -3 -102 -28 -152 -70 -142 -197 -197 -454 -198 l-133 0 0 350 0
350 138 0 c106 0 157 -5 218 -20z m149 -865 c117 -33 198 -93 240 -174 30 -60
37 -97 37 -185 -1 -100 -29 -172 -96 -240 -107 -110 -205 -138 -486 -140
l-195 -1 -3 384 -2 383 222 -5 c168 -3 238 -9 283 -22z"/>
<path d="M3410 4286 c-343 -73 -595 -331 -655 -671 -40 -233 3 -479 117 -655
56 -87 178 -205 267 -258 341 -202 827 -140 1083 136 166 180 235 377 225 642
-9 251 -76 409 -242 575 -118 118 -217 175 -381 221 -81 22 -326 28 -414 10z
m291 -152 c186 -55 326 -202 398 -419 40 -120 51 -195 51 -350 0 -218 -51
-371 -162 -490 -100 -107 -219 -152 -378 -142 -151 10 -252 59 -362 175 -79
84 -141 200 -175 330 -23 85 -26 117 -27 267 -1 193 7 238 64 360 61 132 162
225 288 266 74 23 227 25 303 3z"/>
<path d="M4620 4247 c0 -19 17 -31 99 -72 l100 -48 270 -368 271 -368 -2 -317
-3 -318 -110 -46 c-98 -41 -110 -50 -113 -73 l-3 -27 376 0 376 0 -3 26 c-3
23 -16 32 -115 73 l-113 46 1 320 0 320 257 365 258 365 102 49 c86 42 102 53
102 73 l0 23 -295 0 -295 0 0 -23 c0 -19 17 -31 96 -70 61 -30 94 -52 91 -60
-11 -30 -380 -558 -388 -555 -4 2 -92 116 -195 253 -103 138 -198 264 -211
282 l-25 32 91 46 c78 39 91 49 91 70 l0 25 -355 0 -355 0 0 -23z"/>
</g>
</svg>
